<svg xmlns="http://www.w3.org/2000/svg">
<!-- soleil-->
<circle cx="170" cy="170" r="100"  fill="yellow">

<animate id="petit" attributeName="r" attributeType="xml" from="100" to="145" begin="1s;grand.end" dur="2s" fill="freeze"/>
<animate id="grand" attributeName="r" attributeType="xml" from="145" to="100" begin="petit.end" dur="2s" fill="freeze"/>

 </circle>

<!-- animaux -->

<g transform="translate(-500,100) scale(0.9)" >
<path d="M 50 100 Q 150 50 150 150 Q 200 50 250 150"  stroke="black" stroke-width="6" fill="none" >       

<animateTransform  attributeName="transform" attributeType="xml" type="translate" from="100" to="2620" dur="3s" repeatCount="indefinite" />
</path>

</g>


<!-- gazon-->


<rect y="900" width="3000" height="200" fill= "#076e10" />

<!--Arbre-->

<polygon transform="translate(1410,461) scale(1.4) " points="225,9 300,210 160,210" fill="#086105" />

<polygon transform="translate(1453,420) scale(1.2) " points="225,9 300,210 160,210" fill="#086105" />

<polygon transform="translate(1542,390) scale(0.8) " points="225,9 300,210 160,210" fill="#086105" />

<rect y="755" x="1708" width="50" height="147" fill="#5a2f06" />

 <!-- stickman-->

        <g transform="translate(200,575) scale(0.5)">
        <circle cx="200" cy="200" r="100" stroke="black" stroke-width="6" fill="none" />
        <circle cx="180" cy="180" r="10" stroke="black" stroke-width="6" fill="none" />
        <circle cx="220" cy="180" r="10" stroke="black" stroke-width="6" fill="none" />

        <line x1="200" y1="300" x2="200" y2="500" stroke="black" stroke-width="6" />
        
        <line x1="200" y1="500" x2="100" y2="650" stroke="black" stroke-width="6" />
        <line x1="200" y1="500" x2="300" y2="650" stroke="black" stroke-width="6" />
        
        <line x1="200" y1="400" x2="50" y2="350" stroke="black" stroke-width="6" />
        <line x1="200" y1="400" x2="350" y2="350" stroke="black" stroke-width="6" />
        
        <path d="M 150 200 Q 200 250 250 200" stroke="black" stroke-width="6" fill="none" />

        </g>



        <g transform=" translate(300,487) rotate(35,50,500) scale(0.5)">
        <circle cx="200" cy="200" r="100" stroke="black" stroke-width="6" fill="none" />
        <circle cx="180" cy="180" r="10" stroke="black" stroke-width="6" fill="none" />
        <circle cx="220" cy="180" r="10" stroke="black" stroke-width="6" fill="none" />

        <line x1="200" y1="300" x2="200" y2="500" stroke="black" stroke-width="6" />
        
        <line x1="200" y1="500" x2="100" y2="650" stroke="black" stroke-width="6" />
        <line x1="200" y1="500" x2="300" y2="650" stroke="black" stroke-width="6" />
        
        <line x1="200" y1="400" x2="50" y2="350" stroke="black" stroke-width="6" />
        <line x1="200" y1="400" x2="350" y2="350" stroke="black" stroke-width="6" />
        
        <path d="M 150 200 Q 200 250 250 200" stroke="black" stroke-width="6" fill="none" />

        </g>


</svg>